<svg id="Capa_1" data-name="Capa 1" xmlns="http://www.w3.org/2000/svg" viewBox="0 0 300 300"><defs><style>.cls-1{fill:#f4123d;}</style></defs><circle cx="244.84" cy="95.04" r="36.66" transform="translate(111.81 321.5) rotate(-80.78)" fill="white"/><path class="cls-1" d="M155.67,185.08c22-11.26,34.55-31.15,34.55-57.59,0-42.41-32.46-69.11-83.51-69.11H18.49V116l31.79,1.87a3.2,3.2,0,0,0,3.55-2.77C57.11,101.31,69,95.38,83.7,96.65l53.93,4.68c3.09.32,4.89,1.92,4.89,4.89a4.58,4.58,0,0,1-4.89,4.89H92.47a4.82,4.82,0,0,0-5.15,5.15v.24a4.82,4.82,0,0,0,5.15,5.15h45.16a4.89,4.89,0,0,1,0,9.77H92.47a4.83,4.83,0,0,0-5.15,5.16v.24A4.83,4.83,0,0,0,92.47,142h45.16a4.59,4.59,0,0,1,4.89,4.9c0,3-1.8,4.56-4.89,4.88L83.7,156.45C69,157.72,57.12,151.78,53.84,138a3.2,3.2,0,0,0-3.55-2.78l-31.8,1.87V241.62H80.27V195.55H97l31.15,46.07h66Z"/></svg>