<svg width="236" height="236" viewBox="0 0 236 236" fill="none" xmlns="http://www.w3.org/2000/svg">
<circle cx="118" cy="118" r="118" fill="white"/>
<g filter="url(#filter0_i)">
<circle cx="117.5" cy="117.5" r="87.5" fill="white"/>
</g>
<path d="M77.76 89.352C77.824 89.288 77.92 89.256 78.048 89.256C78.208 89.256 78.256 89.336 78.192 89.496C77.52 90.584 76.736 91.448 75.84 92.088C74.944 92.696 73.984 93 72.96 93C71.552 93 70.352 92.6 69.36 91.8C68.368 90.968 67.504 89.88 66.768 88.536C66.064 87.16 65.472 85.576 64.992 83.784C64.512 81.992 64.064 80.12 63.648 78.168C63.648 77.944 63.712 77.816 63.84 77.784C64 77.688 64.288 77.592 64.704 77.496C65.152 77.368 65.552 77.24 65.904 77.112C66 77.08 66.144 77.096 66.336 77.16C66.56 77.192 66.816 77.24 67.104 77.304C67.424 77.336 67.792 77.368 68.208 77.4C68.624 77.4 69.104 77.336 69.648 77.208C71.024 76.888 72.096 76.184 72.864 75.096C73.632 73.976 74.016 72.472 74.016 70.584C74.016 69.656 73.856 68.776 73.536 67.944C73.248 67.112 72.8 66.392 72.192 65.784C71.616 65.144 70.88 64.632 69.984 64.248C69.12 63.832 68.096 63.576 66.912 63.48C66.08 64.536 65.328 65.848 64.656 67.416C64.016 68.984 63.424 70.792 62.88 72.84C61.92 76.36 60.8 79.4 59.52 81.96C58.272 84.488 56.88 86.568 55.344 88.2C53.808 89.832 52.144 91.048 50.352 91.848C48.56 92.616 46.688 93 44.736 93C42.528 93 40.912 92.504 39.888 91.512C38.896 90.488 38.4 89.16 38.4 87.528C38.4 86.056 38.816 84.76 39.648 83.64C40.512 82.52 41.552 81.736 42.768 81.288C43.088 81.16 43.184 81.272 43.056 81.624C41.2 82.616 40.272 84.088 40.272 86.04C40.272 87.608 40.768 88.872 41.76 89.832C42.752 90.76 44.24 91.224 46.224 91.224C47.824 91.224 49.216 91.048 50.4 90.696C51.616 90.312 52.72 89.56 53.712 88.44C54.704 87.288 55.632 85.656 56.496 83.544C57.392 81.432 58.32 78.632 59.28 75.144C60.72 69.832 62.72 65.944 65.28 63.48C62.304 63.576 59.744 64.152 57.6 65.208C55.488 66.232 53.664 67.848 52.128 70.056C52 70.12 51.888 70.12 51.792 70.056C51.696 69.992 51.68 69.88 51.744 69.72C53.248 67.512 55.264 65.736 57.792 64.392C60.32 63.016 63.376 62.248 66.96 62.088C68.144 61.288 69.456 60.696 70.896 60.312C71.056 60.312 71.136 60.376 71.136 60.504C71.136 60.6 71.056 60.68 70.896 60.744C70.032 60.968 69.184 61.416 68.352 62.088C69.696 62.088 70.896 62.296 71.952 62.712C73.008 63.128 73.904 63.688 74.64 64.392C75.376 65.096 75.936 65.896 76.32 66.792C76.704 67.688 76.896 68.616 76.896 69.576C76.896 70.92 76.64 72.136 76.128 73.224C75.648 74.312 74.944 75.24 74.016 76.008C73.12 76.776 72.016 77.352 70.704 77.736C69.424 78.088 67.984 78.184 66.384 78.024C66.864 80.52 67.392 82.616 67.968 84.312C68.544 85.976 69.168 87.304 69.84 88.296C70.544 89.288 71.312 89.992 72.144 90.408C73.008 90.824 73.936 91.032 74.928 91.032C76.016 91.032 76.96 90.472 77.76 89.352ZM89.1416 83.112C89.1416 84.936 86.7256 86.184 81.8936 86.856C81.8616 87.176 81.8296 87.496 81.7976 87.816C81.7976 88.136 81.7976 88.472 81.7976 88.824C81.7976 89.656 81.9896 90.296 82.3736 90.744C82.7576 91.192 83.3656 91.416 84.1976 91.416C84.8056 91.416 85.4296 91.24 86.0696 90.888C86.7096 90.536 87.2216 90.088 87.6056 89.544C87.7336 89.48 87.8296 89.512 87.8936 89.64C87.9576 89.736 87.9736 89.848 87.9416 89.976C87.3016 90.808 86.4856 91.528 85.4936 92.136C84.5336 92.712 83.4936 93 82.3736 93C81.2536 93 80.4376 92.728 79.9256 92.184C79.4456 91.608 79.2056 90.808 79.2056 89.784C79.2056 88.792 79.4136 87.768 79.8296 86.712C80.2456 85.624 80.7736 84.632 81.4136 83.736C82.0856 82.84 82.8376 82.12 83.6696 81.576C84.5336 81 85.3976 80.712 86.2616 80.712C87.1256 80.712 87.8136 80.968 88.3256 81.48C88.8696 81.96 89.1416 82.504 89.1416 83.112ZM84.9656 81.96C84.2296 81.96 83.5896 82.312 83.0456 83.016C82.5336 83.688 82.1816 84.744 81.9896 86.184C83.5256 86.024 84.6616 85.736 85.3976 85.32C86.1336 84.872 86.5016 84.328 86.5016 83.688C86.5016 83.208 86.3576 82.808 86.0696 82.488C85.7816 82.136 85.4136 81.96 84.9656 81.96ZM96.5963 80.712C97.3003 80.712 97.8603 80.808 98.2763 81C98.7243 81.192 98.9483 81.432 98.9483 81.72C98.9483 82.072 98.8523 82.472 98.6603 82.92C98.5003 83.368 98.3403 83.736 98.1803 84.024C98.1163 84.088 98.0363 84.104 97.9403 84.072C97.8443 84.008 97.7963 83.912 97.7963 83.784C97.8923 83.56 97.9403 83.24 97.9403 82.824C97.9403 82.376 97.8123 82.008 97.5563 81.72C97.3323 81.432 97.0123 81.288 96.5963 81.288C96.0523 81.288 95.6043 81.464 95.2523 81.816C94.9323 82.136 94.7723 82.6 94.7723 83.208C94.7723 83.72 94.9003 84.216 95.1562 84.696C95.4443 85.144 95.7483 85.608 96.0683 86.088C96.4203 86.536 96.7403 87.032 97.0283 87.576C97.3163 88.088 97.4603 88.68 97.4603 89.352C97.4603 90.504 96.9963 91.4 96.0683 92.04C95.1403 92.68 93.9243 93 92.4203 93C91.3323 93 90.4683 92.824 89.8283 92.472C89.2202 92.12 88.9162 91.736 88.9162 91.32C88.9162 91.192 88.9642 91.016 89.0602 90.792C89.1562 90.568 89.2843 90.328 89.4443 90.072C89.6043 89.816 89.7803 89.56 89.9723 89.304C90.1643 89.048 90.3723 88.84 90.5963 88.68C90.6923 88.616 90.7722 88.632 90.8363 88.728C90.9323 88.824 90.9483 88.92 90.8843 89.016C90.6923 89.208 90.5483 89.416 90.4523 89.64C90.3563 89.832 90.3083 90.104 90.3083 90.456C90.3083 91.032 90.5003 91.512 90.8843 91.896C91.2683 92.248 91.7643 92.424 92.3723 92.424C93.2043 92.424 93.8443 92.2 94.2923 91.752C94.7723 91.272 95.0123 90.696 95.0123 90.024C95.0123 89.416 94.8683 88.856 94.5803 88.344C94.3243 87.8 94.0363 87.288 93.7163 86.808C93.3963 86.296 93.0923 85.784 92.8043 85.272C92.5483 84.76 92.4203 84.216 92.4203 83.64C92.4203 82.808 92.7723 82.12 93.4763 81.576C94.1803 81 95.2203 80.712 96.5963 80.712ZM109.703 80.952C109.863 81.016 109.927 81.112 109.895 81.24C109.863 81.336 109.719 81.416 109.463 81.48C108.983 81.48 108.423 81.496 107.783 81.528C107.175 81.56 106.519 81.608 105.815 81.672C105.175 83.24 104.647 84.776 104.231 86.28C103.815 87.752 103.607 88.952 103.607 89.88C103.607 90.968 104.023 91.512 104.855 91.512C105.687 91.512 106.615 90.792 107.639 89.352C107.735 89.288 107.815 89.288 107.879 89.352C107.975 89.416 108.007 89.528 107.975 89.688C107.431 90.584 106.743 91.368 105.911 92.04C105.079 92.68 104.263 93 103.463 93C102.631 93 102.007 92.808 101.591 92.424C101.207 92.008 101.015 91.448 101.015 90.744C101.015 89.816 101.239 88.536 101.687 86.904C102.135 85.272 102.711 83.608 103.415 81.912C102.583 82.008 101.815 82.136 101.111 82.296C100.951 82.264 100.903 82.184 100.967 82.056C101.063 81.928 101.207 81.8 101.399 81.672C101.623 81.512 101.879 81.384 102.167 81.288C102.455 81.16 102.727 81.096 102.983 81.096C103.111 81.096 103.239 81.096 103.367 81.096C103.495 81.096 103.623 81.08 103.751 81.048C104.167 80.12 104.599 79.224 105.047 78.36C105.495 77.496 105.943 76.712 106.391 76.008C106.583 75.784 106.839 75.592 107.159 75.432C107.511 75.24 107.847 75.096 108.167 75C108.487 74.904 108.743 74.856 108.935 74.856C109.159 74.824 109.255 74.872 109.223 75C108.679 75.832 108.135 76.76 107.591 77.784C107.079 78.808 106.583 79.88 106.103 81C106.711 80.968 107.319 80.952 107.927 80.952C108.567 80.952 109.159 80.952 109.703 80.952ZM122.592 89.976C122.656 89.912 122.736 89.912 122.832 89.976C122.928 90.04 122.96 90.136 122.928 90.264C122.352 91.096 121.712 91.768 121.008 92.28C120.304 92.76 119.632 93 118.992 93C118.256 93 117.776 92.488 117.552 91.464C117.36 90.408 117.472 89.16 117.888 87.72C117.024 89.096 116.08 90.28 115.056 91.272C114.064 92.232 113.008 92.808 111.888 93C111.12 93 110.528 92.648 110.112 91.944C109.696 91.24 109.488 90.424 109.488 89.496C109.488 88.44 109.744 87.4 110.256 86.376C110.768 85.32 111.44 84.376 112.272 83.544C113.136 82.712 114.08 82.04 115.104 81.528C116.16 80.984 117.216 80.712 118.272 80.712C119.392 80.712 120.272 80.984 120.912 81.528C121.232 81.304 121.632 81.112 122.112 80.952C122.624 80.792 123.072 80.712 123.456 80.712C123.584 80.712 123.648 80.792 123.648 80.952C122.912 81.848 122.272 82.84 121.728 83.928C121.216 84.984 120.816 86.008 120.528 87C120.24 87.96 120.064 88.824 120 89.592C119.936 90.36 120 90.888 120.192 91.176C120.352 91.368 120.624 91.432 121.008 91.368C121.392 91.272 121.92 90.808 122.592 89.976ZM113.376 91.224C113.76 91.224 114.224 90.984 114.768 90.504C115.344 90.024 115.936 89.384 116.544 88.584C117.152 87.784 117.744 86.888 118.32 85.896C118.928 84.904 119.456 83.896 119.904 82.872C119.776 82.456 119.472 82.12 118.992 81.864C118.544 81.608 118.016 81.48 117.408 81.48C116.672 81.48 115.984 81.672 115.344 82.056C114.704 82.408 114.144 82.92 113.664 83.592C113.216 84.232 112.848 85.016 112.56 85.944C112.304 86.84 112.176 87.832 112.176 88.92C112.176 89.624 112.288 90.184 112.512 90.6C112.768 91.016 113.056 91.224 113.376 91.224ZM127.255 93C125.911 93 125.239 92.264 125.239 90.792C125.239 90.28 125.287 89.688 125.383 89.016C125.511 88.344 125.687 87.656 125.911 86.952C126.167 86.216 126.455 85.48 126.775 84.744C127.095 84.008 127.479 83.304 127.927 82.632C127.575 82.856 127.239 83.096 126.919 83.352C126.599 83.576 126.311 83.816 126.055 84.072C125.959 84.136 125.863 84.12 125.767 84.024C125.703 83.896 125.703 83.784 125.767 83.688C126.311 83.112 127.079 82.52 128.071 81.912C129.095 81.304 130.071 80.824 130.999 80.472C131.159 80.472 131.271 80.52 131.335 80.616C131.431 80.68 131.447 80.776 131.383 80.904C130.359 82.248 129.527 83.704 128.887 85.272C128.279 86.84 127.975 88.36 127.975 89.832C127.975 90.76 128.263 91.224 128.839 91.224C129.255 91.224 129.767 90.952 130.375 90.408C130.983 89.832 131.623 89.096 132.295 88.2C132.967 87.272 133.639 86.232 134.311 85.08C135.015 83.928 135.655 82.76 136.231 81.576C136.327 81.384 136.599 81.192 137.047 81C137.527 80.808 138.007 80.712 138.487 80.712C138.967 80.712 139.111 80.84 138.919 81.096C138.471 81.928 138.071 82.712 137.719 83.448C137.399 84.152 137.127 84.856 136.903 85.56C136.679 86.264 136.503 86.984 136.375 87.72C136.279 88.424 136.231 89.208 136.231 90.072C136.231 91.096 136.503 91.608 137.047 91.608C137.591 91.608 138.199 91.128 138.871 90.168C138.967 90.104 139.063 90.104 139.159 90.168C139.255 90.232 139.287 90.328 139.255 90.456C138.711 91.288 138.103 91.928 137.431 92.376C136.791 92.792 136.199 93 135.655 93C134.311 93 133.639 92.216 133.639 90.648C133.639 89.016 133.927 87.4 134.503 85.8C133.287 88.008 132.007 89.768 130.663 91.08C129.319 92.36 128.183 93 127.255 93ZM146.169 82.104C146.169 82.584 146.121 83.128 146.025 83.736C145.929 84.344 145.801 84.968 145.641 85.608C146.281 84.072 146.985 82.872 147.753 82.008C148.521 81.144 149.353 80.712 150.249 80.712C150.729 80.712 151.097 80.824 151.353 81.048C151.609 81.272 151.737 81.56 151.737 81.912C151.737 82.232 151.609 82.648 151.353 83.16C151.129 83.672 150.937 84.024 150.777 84.216C150.713 84.248 150.649 84.248 150.585 84.216C150.521 84.152 150.489 84.088 150.489 84.024C150.489 83.8 150.393 83.608 150.201 83.448C150.041 83.288 149.785 83.208 149.433 83.208C148.313 83.208 147.289 83.976 146.361 85.512C145.465 87.016 144.633 89.192 143.865 92.04C143.833 92.2 143.721 92.344 143.529 92.472C143.337 92.568 143.113 92.664 142.857 92.76C142.633 92.824 142.393 92.888 142.137 92.952C141.881 92.984 141.657 93 141.465 93C141.113 93 141.017 92.808 141.177 92.424C141.465 91.752 141.737 91.032 141.993 90.264C142.281 89.464 142.537 88.664 142.761 87.864C142.985 87.064 143.177 86.296 143.337 85.56C143.497 84.792 143.625 84.088 143.721 83.448C143.785 82.968 143.801 82.6 143.769 82.344C143.769 82.088 143.641 81.96 143.385 81.96C143.065 81.96 142.729 82.104 142.377 82.392C142.057 82.648 141.753 82.984 141.465 83.4C141.337 83.496 141.209 83.512 141.081 83.448C140.985 83.352 140.969 83.24 141.033 83.112C141.225 82.856 141.449 82.6 141.705 82.344C141.993 82.056 142.297 81.8 142.617 81.576C142.969 81.32 143.321 81.112 143.673 80.952C144.057 80.792 144.441 80.712 144.825 80.712C145.337 80.712 145.689 80.84 145.881 81.096C146.073 81.32 146.169 81.656 146.169 82.104ZM164.405 89.976C164.469 89.912 164.549 89.912 164.645 89.976C164.741 90.04 164.773 90.136 164.741 90.264C164.165 91.096 163.525 91.768 162.821 92.28C162.117 92.76 161.445 93 160.805 93C160.069 93 159.589 92.488 159.365 91.464C159.173 90.408 159.285 89.16 159.701 87.72C158.837 89.096 157.893 90.28 156.868 91.272C155.877 92.232 154.821 92.808 153.701 93C152.933 93 152.341 92.648 151.925 91.944C151.509 91.24 151.301 90.424 151.301 89.496C151.301 88.44 151.557 87.4 152.069 86.376C152.581 85.32 153.253 84.376 154.085 83.544C154.949 82.712 155.893 82.04 156.917 81.528C157.973 80.984 159.029 80.712 160.085 80.712C161.205 80.712 162.085 80.984 162.725 81.528C163.045 81.304 163.445 81.112 163.924 80.952C164.437 80.792 164.885 80.712 165.269 80.712C165.397 80.712 165.461 80.792 165.461 80.952C164.725 81.848 164.085 82.84 163.541 83.928C163.029 84.984 162.629 86.008 162.341 87C162.053 87.96 161.877 88.824 161.812 89.592C161.749 90.36 161.813 90.888 162.005 91.176C162.165 91.368 162.437 91.432 162.821 91.368C163.205 91.272 163.733 90.808 164.405 89.976ZM155.189 91.224C155.573 91.224 156.037 90.984 156.581 90.504C157.157 90.024 157.749 89.384 158.357 88.584C158.965 87.784 159.557 86.888 160.133 85.896C160.741 84.904 161.269 83.896 161.717 82.872C161.589 82.456 161.285 82.12 160.805 81.864C160.357 81.608 159.829 81.48 159.221 81.48C158.485 81.48 157.797 81.672 157.157 82.056C156.517 82.408 155.957 82.92 155.477 83.592C155.029 84.232 154.661 85.016 154.373 85.944C154.117 86.84 153.989 87.832 153.989 88.92C153.989 89.624 154.101 90.184 154.325 90.6C154.581 91.016 154.869 91.224 155.189 91.224ZM180.588 89.64C180.652 89.576 180.732 89.592 180.828 89.688C180.924 89.752 180.956 89.848 180.924 89.976C180.348 90.776 179.676 91.48 178.908 92.088C178.172 92.696 177.436 93 176.7 93C176.156 93 175.724 92.824 175.404 92.472C175.116 92.12 174.972 91.656 174.972 91.08C174.972 89.96 175.164 88.744 175.548 87.432C175.964 86.12 176.508 84.792 177.18 83.448C177.276 83.224 177.324 82.984 177.324 82.728C177.324 82.408 177.18 82.248 176.892 82.248C175.708 82.248 174.396 83.064 172.956 84.696C171.516 86.296 170.188 88.856 168.972 92.376C168.94 92.472 168.828 92.568 168.636 92.664C168.476 92.728 168.284 92.792 168.06 92.856C167.836 92.888 167.612 92.92 167.388 92.952C167.164 92.984 166.988 93 166.86 93C166.7 93 166.572 92.968 166.476 92.904C166.412 92.84 166.412 92.728 166.476 92.568C167.02 91.192 167.564 89.688 168.108 88.056C168.684 86.392 169.18 84.728 169.596 83.064C169.692 82.744 169.708 82.52 169.644 82.392C169.58 82.232 169.468 82.152 169.308 82.152C168.956 82.152 168.62 82.312 168.3 82.632C167.98 82.92 167.692 83.24 167.436 83.592C167.34 83.656 167.244 83.64 167.148 83.544C167.084 83.448 167.068 83.352 167.1 83.256C167.26 83.032 167.468 82.776 167.724 82.488C168.012 82.2 168.332 81.928 168.684 81.672C169.036 81.384 169.404 81.16 169.788 81C170.172 80.808 170.556 80.712 170.94 80.712C171.484 80.712 171.836 80.888 171.996 81.24C172.188 81.56 172.236 81.96 172.14 82.44C171.98 83.144 171.804 83.816 171.612 84.456C171.452 85.064 171.244 85.752 170.988 86.52C171.372 85.816 171.836 85.128 172.38 84.456C172.956 83.752 173.58 83.128 174.252 82.584C174.956 82.008 175.708 81.56 176.508 81.24C177.308 80.888 178.156 80.712 179.052 80.712C179.436 80.712 179.724 80.808 179.916 81C180.14 81.192 180.252 81.416 180.252 81.672C180.252 82.12 180.14 82.52 179.916 82.872C179.244 84.088 178.668 85.352 178.188 86.664C177.74 87.944 177.516 89.096 177.516 90.12C177.516 90.952 177.788 91.368 178.332 91.368C178.684 91.368 179.036 91.224 179.388 90.936C179.74 90.648 180.14 90.216 180.588 89.64ZM191.64 80.952C191.8 81.016 191.864 81.112 191.832 81.24C191.8 81.336 191.656 81.416 191.4 81.48C190.92 81.48 190.36 81.496 189.72 81.528C189.112 81.56 188.456 81.608 187.752 81.672C187.112 83.24 186.584 84.776 186.168 86.28C185.752 87.752 185.544 88.952 185.544 89.88C185.544 90.968 185.96 91.512 186.792 91.512C187.624 91.512 188.552 90.792 189.576 89.352C189.672 89.288 189.752 89.288 189.816 89.352C189.912 89.416 189.944 89.528 189.912 89.688C189.368 90.584 188.68 91.368 187.848 92.04C187.016 92.68 186.2 93 185.4 93C184.568 93 183.944 92.808 183.528 92.424C183.144 92.008 182.952 91.448 182.952 90.744C182.952 89.816 183.176 88.536 183.624 86.904C184.072 85.272 184.648 83.608 185.352 81.912C184.52 82.008 183.752 82.136 183.048 82.296C182.888 82.264 182.84 82.184 182.904 82.056C183 81.928 183.144 81.8 183.336 81.672C183.56 81.512 183.816 81.384 184.104 81.288C184.392 81.16 184.664 81.096 184.92 81.096C185.048 81.096 185.176 81.096 185.304 81.096C185.432 81.096 185.56 81.08 185.688 81.048C186.104 80.12 186.536 79.224 186.984 78.36C187.432 77.496 187.88 76.712 188.328 76.008C188.52 75.784 188.776 75.592 189.096 75.432C189.448 75.24 189.784 75.096 190.104 75C190.424 74.904 190.68 74.856 190.872 74.856C191.096 74.824 191.192 74.872 191.16 75C190.616 75.832 190.072 76.76 189.528 77.784C189.016 78.808 188.52 79.88 188.04 81C188.648 80.968 189.256 80.952 189.864 80.952C190.504 80.952 191.096 80.952 191.64 80.952Z" fill="black"/>
<path d="M52.1562 151.598C52.1562 151.27 52.2188 150.961 52.3438 150.672C52.4688 150.375 52.6406 150.121 52.8594 149.91C53.0781 149.691 53.332 149.52 53.6211 149.395C53.918 149.262 54.2305 149.195 54.5586 149.195H63.6758C64.0039 149.195 64.3125 149.262 64.6016 149.395C64.8984 149.52 65.1562 149.691 65.375 149.91C65.5938 150.121 65.7656 150.375 65.8906 150.672C66.0156 150.961 66.0781 151.27 66.0781 151.598V153.766H63.6758V151.598H54.5586V163.598H63.6758V161.441H66.0781V163.598C66.0781 163.926 66.0156 164.238 65.8906 164.535C65.7656 164.824 65.5938 165.078 65.375 165.297C65.1562 165.516 64.8984 165.688 64.6016 165.812C64.3125 165.938 64.0039 166 63.6758 166H54.5586C54.2305 166 53.918 165.938 53.6211 165.812C53.332 165.688 53.0781 165.516 52.8594 165.297C52.6406 165.078 52.4688 164.824 52.3438 164.535C52.2188 164.238 52.1562 163.926 52.1562 163.598V151.598ZM80.4805 163.691C80.4805 164.012 80.418 164.312 80.293 164.594C80.1758 164.875 80.0117 165.121 79.8008 165.332C79.5977 165.535 79.3555 165.699 79.0742 165.824C78.8008 165.941 78.5039 166 78.1836 166H71.9844C71.6719 166 71.375 165.941 71.0938 165.824C70.8125 165.699 70.5664 165.535 70.3555 165.332C70.1523 165.121 69.9883 164.875 69.8633 164.594C69.7461 164.312 69.6875 164.012 69.6875 163.691V155.828C69.6875 155.508 69.7461 155.207 69.8633 154.926C69.9883 154.645 70.1523 154.402 70.3555 154.199C70.5664 153.988 70.8125 153.824 71.0938 153.707C71.375 153.582 71.6719 153.52 71.9844 153.52H78.1836C78.5039 153.52 78.8008 153.582 79.0742 153.707C79.3555 153.824 79.5977 153.988 79.8008 154.199C80.0117 154.402 80.1758 154.645 80.293 154.926C80.418 155.207 80.4805 155.508 80.4805 155.828V163.691ZM71.9844 155.828V163.691H78.1836V155.828H71.9844ZM95.375 166H93.0664V155.828H86.6328V166H84.3359V153.52H86.6328V155.723C86.6484 155.418 86.7188 155.133 86.8438 154.867C86.9688 154.594 87.1328 154.359 87.3359 154.164C87.5469 153.961 87.7891 153.805 88.0625 153.695C88.3359 153.578 88.6289 153.52 88.9414 153.52H93.0664C93.3867 153.52 93.6875 153.582 93.9688 153.707C94.25 153.824 94.4922 153.988 94.6953 154.199C94.9062 154.402 95.0703 154.645 95.1875 154.926C95.3125 155.207 95.375 155.508 95.375 155.828V166ZM98.4922 153.52H101.539V149.676H103.848V153.52H107.949V155.828H103.848V163.691H107.949V166H103.848C103.535 166 103.238 165.941 102.957 165.824C102.676 165.699 102.43 165.535 102.219 165.332C102.008 165.121 101.84 164.875 101.715 164.594C101.598 164.312 101.539 164.012 101.539 163.691V155.828H98.4922V153.52ZM114.102 155.828V166H111.805V153.52H114.102V155.723C114.117 155.418 114.188 155.133 114.312 154.867C114.438 154.594 114.602 154.359 114.805 154.164C115.016 153.961 115.258 153.805 115.531 153.695C115.805 153.578 116.098 153.52 116.41 153.52H118.859C119.18 153.52 119.477 153.582 119.75 153.707C120.031 153.824 120.277 153.988 120.488 154.199C120.699 154.402 120.863 154.645 120.98 154.926C121.105 155.207 121.168 155.508 121.168 155.828V157.938H118.859V155.828H114.102ZM134.832 163.691C134.832 164.012 134.77 164.312 134.645 164.594C134.527 164.875 134.363 165.121 134.152 165.332C133.949 165.535 133.707 165.699 133.426 165.824C133.152 165.941 132.855 166 132.535 166H126.336C126.023 166 125.727 165.941 125.445 165.824C125.164 165.699 124.918 165.535 124.707 165.332C124.504 165.121 124.34 164.875 124.215 164.594C124.098 164.312 124.039 164.012 124.039 163.691V155.828C124.039 155.508 124.098 155.207 124.215 154.926C124.34 154.645 124.504 154.402 124.707 154.199C124.918 153.988 125.164 153.824 125.445 153.707C125.727 153.582 126.023 153.52 126.336 153.52H132.535C132.855 153.52 133.152 153.582 133.426 153.707C133.707 153.824 133.949 153.988 134.152 154.199C134.363 154.402 134.527 154.645 134.645 154.926C134.77 155.207 134.832 155.508 134.832 155.828V163.691ZM126.336 155.828V163.691H132.535V155.828H126.336ZM140.984 148.715V166H138.688V148.715H140.984ZM144.828 160.551C144.828 160.23 144.887 159.934 145.004 159.66C145.129 159.379 145.293 159.133 145.496 158.922C145.707 158.711 145.953 158.547 146.234 158.43C146.516 158.305 146.812 158.242 147.125 158.242H153.078V155.828H145.543V153.52H153.078C153.398 153.52 153.699 153.582 153.98 153.707C154.262 153.824 154.504 153.988 154.707 154.199C154.918 154.402 155.082 154.645 155.199 154.926C155.324 155.207 155.387 155.508 155.387 155.828V166H153.078V163.891C153.055 164.18 152.977 164.453 152.844 164.711C152.711 164.969 152.539 165.195 152.328 165.391C152.125 165.578 151.891 165.727 151.625 165.836C151.359 165.945 151.078 166 150.781 166H147.125C146.812 166 146.516 165.941 146.234 165.824C145.953 165.699 145.707 165.535 145.496 165.332C145.293 165.121 145.129 164.875 145.004 164.594C144.887 164.312 144.828 164.012 144.828 163.691V160.551ZM147.125 163.691H153.078V160.551H147.125V163.691ZM159.242 155.828C159.242 155.508 159.301 155.207 159.418 154.926C159.543 154.645 159.707 154.402 159.91 154.199C160.121 153.988 160.367 153.824 160.648 153.707C160.93 153.582 161.227 153.52 161.539 153.52H167.973V148.715H170.281V166H167.973V163.891C167.949 164.18 167.871 164.453 167.738 164.711C167.605 164.969 167.434 165.195 167.223 165.391C167.02 165.578 166.785 165.727 166.52 165.836C166.254 165.945 165.973 166 165.676 166H161.539C161.227 166 160.93 165.941 160.648 165.824C160.367 165.699 160.121 165.535 159.91 165.332C159.707 165.121 159.543 164.875 159.418 164.594C159.301 164.312 159.242 164.012 159.242 163.691V155.828ZM161.539 163.691H167.973V155.828H161.539V163.691ZM184.918 163.691C184.918 164.012 184.855 164.312 184.73 164.594C184.613 164.875 184.449 165.121 184.238 165.332C184.035 165.535 183.793 165.699 183.512 165.824C183.238 165.941 182.941 166 182.621 166H176.422C176.109 166 175.812 165.941 175.531 165.824C175.25 165.699 175.004 165.535 174.793 165.332C174.59 165.121 174.426 164.875 174.301 164.594C174.184 164.312 174.125 164.012 174.125 163.691V155.828C174.125 155.508 174.184 155.207 174.301 154.926C174.426 154.645 174.59 154.402 174.793 154.199C175.004 153.988 175.25 153.824 175.531 153.707C175.812 153.582 176.109 153.52 176.422 153.52H182.621C182.941 153.52 183.238 153.582 183.512 153.707C183.793 153.824 184.035 153.988 184.238 154.199C184.449 154.402 184.613 154.645 184.73 154.926C184.855 155.207 184.918 155.508 184.918 155.828V163.691ZM176.422 155.828V163.691H182.621V155.828H176.422Z" fill="black"/>
<path d="M110.538 121.236L116.315 115.458L101.983 101.146C98.7979 104.331 98.7979 109.496 101.983 112.702L110.538 121.236V121.236ZM124.38 117.54C127.504 118.99 131.893 117.969 135.14 114.723C139.039 110.823 139.795 105.229 136.793 102.228C133.813 99.2471 128.218 99.9821 124.298 103.882C121.052 107.128 120.031 111.518 121.481 114.641L101.554 134.568L104.433 137.447L118.5 123.42L132.547 137.467L135.425 134.588L121.379 120.542L124.38 117.54V117.54Z" fill="black"/>
<defs>
<filter id="filter0_i" x="30" y="30" width="175" height="175" filterUnits="userSpaceOnUse" color-interpolation-filters="sRGB">
<feFlood flood-opacity="0" result="BackgroundImageFix"/>
<feBlend mode="normal" in="SourceGraphic" in2="BackgroundImageFix" result="shape"/>
<feColorMatrix in="SourceAlpha" type="matrix" values="0 0 0 0 0 0 0 0 0 0 0 0 0 0 0 0 0 0 127 0" result="hardAlpha"/>
<feOffset/>
<feGaussianBlur stdDeviation="4"/>
<feComposite in2="hardAlpha" operator="arithmetic" k2="-1" k3="1"/>
<feColorMatrix type="matrix" values="0 0 0 0 0 0 0 0 0 0 0 0 0 0 0 0 0 0 0.25 0"/>
<feBlend mode="normal" in2="shape" result="effect1_innerShadow"/>
</filter>
</defs>
</svg>
