<svg id="Capa_1" data-name="Capa 1" xmlns="http://www.w3.org/2000/svg" viewBox="0 0 1080 1080">
    <defs>
        <style>.cls-1{fill:#f4123d;}</style>
        <style>.cls-2{fill:white;}</style>
    </defs>
    <path class="cls-2" d="M321.12,620.65c0-17.44,13.31-30.41,31-30.41,8.16,0,15.64,2.67,20.88,8l-1.8,1.89c-5.33-5.15-11.85-7.21-19-7.21-16.05,0-28.17,12-28.17,27.74s12.12,27.73,28.17,27.73c7.13,0,13.66-2.14,19-7.3L373,643c-5.24,5.4-12.71,8.07-20.88,8.07C334.43,651.06,321.12,638.08,321.12,620.65Z"/>
    <path class="cls-2" d="M379.28,628.38c0-13.23,9.36-22.59,21.9-22.59s21.9,9.36,21.9,22.59S413.8,651,401.18,651,379.28,641.61,379.28,628.38Zm41,0c0-11.85-8.15-19.93-19.06-19.93s-19.07,8.07-19.07,19.93,8.16,20,19.07,20S420.24,640.24,420.24,628.38Z"/>
    <path class="cls-2" d="M473.78,624.52v26.2H471v-26c0-10.65-5.67-16.23-15.38-16.23-11.16,0-17.95,7.22-17.95,18.2v24.05h-2.83V606.13h2.75v10.92c2.83-6.88,9.28-11.25,18.3-11.25C466.73,605.79,473.78,612.24,473.78,624.52Z"/>
    <path class="cls-2" d="M509.34,647.88c-2.15,2.06-5.68,3.09-8.94,3.09-7.38,0-11.33-4.46-11.33-11.43V608.63h-8.42v-2.5h8.42v-9.79h2.83v9.79h14.69v2.5H491.9v30.49c0,6,3,9.37,8.76,9.37a10.69,10.69,0,0,0,7.22-2.67Z"/>
    <path class="cls-2" d="M539.1,605.79v2.83h-.77c-10.39,0-16.49,7-16.49,18.38v23.71H519V606.13h2.75v10.74C524.33,609.83,530.34,605.79,539.1,605.79Z"/>
    <path class="cls-2" d="M542.14,628.38c0-13.23,9.36-22.59,21.9-22.59s21.9,9.36,21.9,22.59S576.66,651,564,651,542.14,641.61,542.14,628.38Zm41,0c0-11.85-8.15-19.93-19.06-19.93S545,616.52,545,628.38s8.16,20,19.07,20S583.1,640.24,583.1,628.38Z"/>
    <path class="cls-2" d="M597.74,587h2.83v63.74h-2.83Z"/>
    <path class="cls-2" d="M647.47,621.85v28.87h-2.74v-8.94c-2.75,5.59-8.42,9.19-16.58,9.19-10,0-16-5.07-16-12.54,0-6.53,4.12-12.2,16.23-12.2h16.24v-4.38c0-8.84-4.72-13.48-13.74-13.48a23.07,23.07,0,0,0-15.89,6l-1.55-2.06A25.88,25.88,0,0,1,631,605.79C641.63,605.79,647.47,611.37,647.47,621.85Zm-2.84,16v-9.28H628.4c-9.7,0-13.4,4.12-13.4,9.7,0,6.36,5,10.3,13.31,10.3S641.89,644.7,644.63,637.83Z"/>
    <path class="cls-2" d="M702.58,587v63.74h-2.75v-12.2A20.33,20.33,0,0,1,680.6,651c-12.37,0-21.82-9.28-21.82-22.59s9.45-22.59,21.82-22.59a20.37,20.37,0,0,1,19.15,12.28V587Zm-2.84,41.4c0-11.85-8.16-19.93-19.07-19.93s-19.06,8.07-19.06,19.93,8.15,20,19.06,20S699.74,640.24,699.74,628.38Z"/>
    <path class="cls-2" d="M714.28,628.38c0-13.23,9.36-22.59,21.9-22.59s21.9,9.36,21.9,22.59S748.79,651,736.18,651,714.28,641.61,714.28,628.38Zm41,0c0-11.85-8.15-19.93-19.06-19.93s-19.07,8.07-19.07,19.93,8.15,20,19.07,20S755.24,640.24,755.24,628.38Z"/>
    <path class="cls-2" d="M282.87,505.47h-60.7c2.55,6.71,8.62,10.22,17.57,10.22,8,0,12.46-2.08,18.21-6.39l18.85,19c-8.47,9.26-20.77,14.06-38.18,14.06-32.11,0-52.87-19.33-52.87-45.37,0-26.52,21.24-45.2,49.52-45.2,25.87,0,48.08,15.65,48.08,45.2C283.35,499.56,283,502.91,282.87,505.47Zm-61.34-17.41h28.11c-1.44-7.35-6.71-11.67-14-11.67C228.08,476.39,223,480.71,221.53,488.06Z"/>
    <path class="cls-2" d="M287,533.74l9.9-23.8c8.31,4.95,20.13,7.83,30.51,7.83,8.79,0,11.19-1.6,11.19-4.16,0-8.94-50.32,3-50.32-31.94,0-16.46,15.33-29.87,44.73-29.87,12.77,0,26.35,2.39,35.62,7.18l-9.91,23.8a51.77,51.77,0,0,0-25.24-6.39c-9.26,0-11.82,2.08-11.82,4.16,0,9.1,50.16-2.72,50.16,32.26,0,15.82-14.85,29.56-45.2,29.56C311.59,542.37,295.94,538.85,287,533.74Z"/>
    <path class="cls-2" d="M445.39,537.73c-5.59,3.2-13.74,4.64-22.21,4.64C399.06,542.37,385,531,385,506.9V484.54H373V458.18h12V433.74h36.1v24.44H439v26.36H421.11v22c0,5.43,3.19,8.46,7.5,8.46a14.79,14.79,0,0,0,8.15-2.39Z"/>
    <path class="cls-2" d="M538.19,493.81v47H504.65v-11.5c-4.15,8.78-12.46,13.1-24.76,13.1-21.4,0-32.43-12.14-32.43-27.16,0-16.93,12.78-26.36,39.94-26.36h14.53c-1.11-6.7-6.23-10.22-16.45-10.22-7.83,0-16.61,2.56-22.36,6.87l-11.5-23.8c10.22-6.39,25.71-9.9,39.29-9.9C520.94,451.8,538.19,464.73,538.19,493.81Zm-36.1,18.53v-6.07h-8.94c-7.67,0-11,2.55-11,7.34,0,4,3.19,7,8.62,7A11.42,11.42,0,0,0,502.09,512.34Z"/>
    <path class="cls-2" d="M646.62,453.39v87.38H612.28v-8.31c-6.55,6.71-15.33,9.91-24.76,9.91-20.92,0-36.74-12.3-36.74-40.74V453.39h36.1v42c0,12.46,4.32,16.62,11.34,16.62,6.23,0,12.3-4.64,12.3-17.57V453.39Z"/>
    <path class="cls-2" d="M723.84,451.8v31.94a49.88,49.88,0,0,0-8-.64c-10.87,0-18.53,5-18.53,18.85v38.82h-36.1V453.39h34.34v9.43C702,455.47,711.7,451.8,723.84,451.8Z"/>
    <path class="cls-2" d="M816.33,493.81v47H782.79v-11.5c-4.16,8.78-12.46,13.1-24.76,13.1-21.41,0-32.43-12.14-32.43-27.16,0-16.93,12.78-26.36,39.94-26.36h14.53c-1.12-6.7-6.23-10.22-16.45-10.22-7.83,0-16.61,2.56-22.37,6.87l-11.5-23.8c10.23-6.39,25.72-9.9,39.3-9.9C799.08,451.8,816.33,464.73,816.33,493.81Zm-36.1,18.53v-6.07h-8.94c-7.67,0-11,2.55-11,7.34,0,4,3.2,7,8.63,7A11.42,11.42,0,0,0,780.23,512.34Z"/>
    <path class="cls-2" d="M926.84,490.93v49.84h-36.1V497.16c0-10.86-4.15-15-10.7-15-7.35,0-13.58,4.63-13.58,17.57v41h-36.1V453.39H864.7V462c6.87-6.87,16.13-10.22,26.36-10.22C911.18,451.8,926.84,463.46,926.84,490.93Z"/>
    <path class="cls-2" d="M1005,537.73c-5.59,3.2-13.74,4.64-22.2,4.64-24.12,0-38.18-11.34-38.18-35.47V484.54h-12V458.18h12V433.74h36.1v24.44h17.89v26.36H980.72v22c0,5.43,3.19,8.46,7.51,8.46a14.76,14.76,0,0,0,8.14-2.39Z"/>
    <path class="cls-1" d="M158.7,506.27c13.42-6.87,21.09-19,21.09-35.15,0-25.87-19.81-42.17-51-42.17H75v35.19l19.4,1.14a2,2,0,0,0,2.16-1.69c2-8.44,9.28-12.06,18.23-11.28l32.91,2.85c1.88.2,3,1.17,3,3a2.79,2.79,0,0,1-3,3H120.14a2.94,2.94,0,0,0-3.14,3.15v.14a2.94,2.94,0,0,0,3.14,3.14H147.7a3,3,0,1,1,0,6H120.14a3,3,0,0,0-3.14,3.15v.14a2.94,2.94,0,0,0,3.14,3.15H147.7a2.79,2.79,0,0,1,3,3c0,1.81-1.1,2.79-3,3l-32.91,2.86c-9,.78-16.22-2.84-18.22-11.27a2,2,0,0,0-2.17-1.7L75,477v63.8h37.7V512.66h10.22l19,28.11h40.25Z"/>
</svg>